{
  "asset": {
    "generator": "glTF-Transform v4.3.0",
    "version": "2.0"
  },
  "accessors": [
    {
      "type": "SCALAR",
      "componentType": 5123,
      "count": 86145,
      "bufferView": 0,
      "byteOffset": 0
    },
    {
      "type": "VEC3",
      "componentType": 5126,
      "count": 19087,
      "max": [
        0.3877491354942322,
        1.4195584058761597,
        0.4484403729438782
      ],
      "min": [
        -0.48388946056365967,
        -0.049302227795124054,
        -0.4320497214794159
      ],
      "bufferView": 1,
      "byteOffset": 0
    },
    {
      "type": "VEC3",
      "componentType": 5126,
      "count": 19087,
      "bufferView": 1,
      "byteOffset": 12
    },
    {
      "type": "VEC2",
      "componentType": 5126,
      "count": 19087,
      "bufferView": 1,
      "byteOffset": 24
    }
  ],
  "bufferViews": [
    {
      "buffer": 0,
      "byteOffset": 0,
      "byteLength": 172292,
      "target": 34963
    },
    {
      "buffer": 0,
      "byteOffset": 172292,
      "byteLength": 610784,
      "byteStride": 32,
      "target": 34962
    }
  ],
  "samplers": [
    {
      "magFilter": 9729,
      "minFilter": 9987,
      "wrapS": 10497,
      "wrapT": 10497
    }
  ],
  "textures": [
    {
      "source": 1,
      "sampler": 0
    },
    {
      "source": 0,
      "sampler": 0
    },
    {
      "source": 2,
      "sampler": 0
    }
  ],
  "images": [
    {
      "name": "quiver_tree_02_nor_gl",
      "mimeType": "image/jpeg",
      "uri": "../textures/quiver_tree_02_nor_gl_1k.jpg"
    },
    {
      "name": "quiver_tree_02_diff",
      "mimeType": "image/jpeg",
      "uri": "../textures/quiver_tree_02_diff_1k.jpg"
    },
    {
      "name": "quiver_tree_02_rough",
      "mimeType": "image/jpeg",
      "uri": "../textures/quiver_tree_02_arm_1k.jpg"
    }
  ],
  "buffers": [
    {
      "uri": "quiver_tree_02.bin",
      "byteLength": 783076
    }
  ],
  "materials": [
    {
      "name": "quiver_tree_02",
      "doubleSided": true,
      "pbrMetallicRoughness": {
        "metallicFactor": 0,
        "baseColorTexture": {
          "index": 0
        },
        "metallicRoughnessTexture": {
          "index": 2
        }
      },
      "normalTexture": {
        "index": 1
      }
    }
  ],
  "meshes": [
    {
      "name": "tree_small_25m",
      "primitives": [
        {
          "attributes": {
            "POSITION": 1,
            "NORMAL": 2,
            "TEXCOORD_0": 3
          },
          "mode": 4,
          "material": 0,
          "indices": 0
        }
      ]
    }
  ],
  "nodes": [
    {
      "name": "quiver_tree_02",
      "mesh": 0
    }
  ],
  "scenes": [
    {
      "name": "Scene",
      "nodes": [
        0
      ]
    }
  ],
  "scene": 0
}